<?xml version="1.0" encoding="UTF-8" standalone="no"?>
<svg
   version="1.1"
   id="Layer_1"
   x="0px"
   y="0px"
   width="100%"
   viewBox="0 0 528 720"
   enable-background="new 0 0 528 720"
   xml:space="preserve"
   sodipodi:docname="HDLab_logo_green+black.svg"
   inkscape:version="1.4.3 (fcd0343856, 2026-01-01)"
   xmlns:inkscape="http://www.inkscape.org/namespaces/inkscape"
   xmlns:sodipodi="http://sodipodi.sourceforge.net/DTD/sodipodi-0.dtd"
   xmlns="http://www.w3.org/2000/svg"
   xmlns:svg="http://www.w3.org/2000/svg"><defs
   id="defs10" /><sodipodi:namedview
   id="namedview10"
   pagecolor="#ffffff"
   bordercolor="#000000"
   borderopacity="0.25"
   inkscape:showpageshadow="2"
   inkscape:pageopacity="0.0"
   inkscape:pagecheckerboard="0"
   inkscape:deskcolor="#d1d1d1"
   inkscape:zoom="0.78862048"
   inkscape:cx="15.216445"
   inkscape:cy="408.94195"
   inkscape:window-width="1854"
   inkscape:window-height="1011"
   inkscape:window-x="1116"
   inkscape:window-y="32"
   inkscape:window-maximized="1"
   inkscape:current-layer="Layer_1" />
<path
   fill="#000000"
   opacity="1.000000"
   stroke="none"
   d=" M279.653015,460.999939   C279.652710,454.833588 280.079773,449.126129 279.539581,443.511780   C278.935364,437.231842 280.987518,432.523651 285.840515,428.795074   C285.971588,428.694366 286.094818,428.574524 286.194214,428.442841   C291.517792,421.390503 298.285461,418.604645 307.327667,419.471436   C315.645660,420.268799 321.310669,410.898529 317.881470,403.242950   C317.791473,403.042023 317.292847,403.024109 316.689026,402.821686   C314.206543,404.793823 315.525055,407.654083 315.418427,410.062622   C315.301910,412.694672 314.786163,414.721527 311.856201,415.131531   C308.647949,415.580505 307.945374,413.331390 307.531982,410.869293   C307.230957,409.076324 306.835205,407.289917 306.684540,405.483673   C306.541992,403.774963 305.978455,402.625763 304.136810,402.361359   C300.720276,401.870819 299.010284,399.369812 297.901306,396.531433   C296.811981,393.743439 294.706512,393.260315 292.297241,393.649994   C289.651184,394.077972 290.546814,396.423676 290.348999,398.117737   C290.291443,398.610840 290.263733,399.131500 290.355133,399.614410   C292.638367,411.673431 287.981049,420.929077 278.703491,428.253418   C275.092529,431.104126 274.177826,434.685425 274.237213,439.196045   C274.467590,456.692078 274.302704,474.192993 274.357208,491.691864   C274.367371,494.947388 274.373322,497.460327 269.785187,497.470123   C265.368347,497.479553 264.565552,495.615967 264.591919,491.761627   C264.727600,471.930298 264.700439,452.097382 264.615906,432.265503   C264.603607,429.384583 265.261932,427.035461 267.539520,425.223450   C267.797791,425.017975 267.971954,424.703705 268.236145,424.509186   C278.813538,416.723145 283.855835,406.833038 281.806793,393.262512   C280.839539,386.856476 284.611938,384.585358 292.248840,385.259521   C294.100739,385.423004 296.173798,386.426422 297.430420,383.979492   C293.064117,381.113434 282.225220,381.695068 278.945251,385.001434   C273.312866,390.678986 267.834625,396.510101 262.168671,402.153229   C259.976013,404.336975 259.152313,406.739838 259.365204,409.782349   C261.367767,438.404266 258.784973,467.033264 259.429474,495.659424   C259.436188,495.957611 259.212280,496.260986 259.090820,496.559906   C251.496124,498.519592 250.657257,497.910339 250.655121,490.304443   C250.647171,461.972656 250.722260,433.640472 250.571014,405.309479   C250.549637,401.307617 251.764526,398.302643 254.478348,395.521088   C260.997620,388.839142 267.642853,382.300537 274.638062,376.111908   C276.645782,374.335693 278.762054,373.535431 281.427002,373.630402   C285.255188,373.766785 289.093323,373.717682 292.924438,373.628601   C294.472961,373.592621 296.355408,374.192566 297.344879,371.924286   C296.513947,369.568695 294.377350,370.427216 292.763580,370.386688   C289.685577,370.309296 286.126099,370.554504 285.964447,366.438171   C285.806976,362.428619 289.718811,363.173584 292.222687,362.247864   C293.902527,361.626831 295.908325,362.826904 297.475708,361.101898   C296.459351,358.374939 294.097961,359.540558 292.389313,359.406189   C289.411346,359.172028 286.120514,358.891174 286.010773,355.308960   C285.889984,351.366974 289.466980,350.654694 292.492859,350.810394   C295.897736,350.985596 297.910675,350.000854 298.511810,346.560699   C298.979340,343.884827 300.977509,342.444763 303.290924,342.023315   C306.337036,341.468353 306.943573,339.740387 306.881592,337.106262   C306.756073,331.775604 306.764709,326.441986 306.686768,321.110016   C306.610046,315.862274 308.248383,311.450104 312.150146,307.711060   C319.007111,301.140045 325.572571,294.265900 332.358398,287.619049   C335.379211,284.660095 336.847504,281.437775 336.764038,277.019287   C336.499695,263.025055 336.609070,249.022247 336.712311,235.023773   C336.734985,231.949905 336.004181,229.850922 333.243408,227.957336   C328.013763,224.370377 326.177765,217.218155 328.362030,211.482651   C330.685272,205.382324 335.364105,202.459915 342.473328,202.668808   C348.389465,202.842636 353.002777,206.300186 354.751953,211.871292   C356.768768,218.294647 354.727142,224.936157 349.111908,228.466949   C346.449585,230.140991 346.333649,232.290878 346.336639,234.842529   C346.354736,250.174988 346.140381,265.511688 346.458679,280.837524   C346.558502,285.644379 344.918793,289.094177 341.684387,292.256134   C334.898651,298.890015 328.309723,305.730072 321.399475,312.229736   C317.622070,315.782715 315.567657,319.631409 316.023468,324.954468   C316.406097,329.423492 316.142609,333.946259 316.219269,338.444305   C316.235413,339.391357 316.127228,340.515259 317.709961,340.967957   C319.341797,339.020050 318.662231,336.593353 318.608643,334.428986   C318.524719,331.039124 320.452271,329.272614 323.264862,329.050079   C326.227356,328.815735 326.730255,331.652191 327.225830,333.919769   C327.710754,336.138580 326.756378,338.539581 328.128479,341.139221   C330.234222,339.637299 329.949066,337.519165 329.673462,335.801392   C327.802917,324.141541 332.107269,315.331940 340.984070,307.790192   C347.943054,301.877777 353.927032,294.827881 360.498871,288.442566   C362.108673,286.878418 362.733093,285.303802 362.671967,283.183563   C362.590302,280.352875 362.494293,277.505768 362.700928,274.687469   C363.013885,270.419250 362.037323,267.286987 358.144531,264.539307   C352.409088,260.490997 351.223541,252.489334 354.542633,246.620300   C357.487885,241.412292 365.071320,238.353958 371.023285,239.973785   C377.449127,241.722610 381.748871,247.862152 381.327026,254.704193   C381.033173,259.470917 378.194489,262.725891 374.542633,265.218750   C371.789825,267.097931 370.914307,269.278961 371.658691,272.439575   C373.068359,278.425140 371.294434,284.369843 371.239868,290.342041   C371.221069,292.396271 369.488098,293.487762 368.230286,294.757233   C359.550629,303.517487 350.766022,312.174469 342.142212,320.988922   C337.837128,325.389130 336.758636,335.859009 339.909668,341.333832   C342.513489,340.041351 341.820496,337.548004 341.571289,335.719452   C340.589600,328.516235 346.208252,324.292358 351.638214,323.895538   C356.184906,323.563293 359.037079,321.038727 361.710327,318.142365   C371.079102,307.991669 380.446014,297.843109 390.648438,288.515778   C392.784668,286.562775 393.724152,284.458649 393.704254,281.539581   C393.598541,266.041138 393.531647,250.539948 393.743408,235.043701   C393.793457,231.382980 392.356506,229.312195 389.573364,227.296188   C384.469666,223.599167 383.709778,218.050308 384.989227,212.467392   C386.190308,207.226181 389.929932,203.684845 395.332306,202.815628   C401.176086,201.875381 406.589142,202.779404 410.381897,208.203842   C414.803497,214.527634 413.509796,223.255600 406.757141,227.994644   C404.017487,229.917374 403.283661,231.974518 403.302002,235.046799   C403.400452,251.545319 403.293518,268.045074 403.394196,284.543549   C403.413696,287.743896 402.640778,290.376678 400.362671,292.658844   C388.240906,304.802155 376.139313,316.965851 364.081970,329.173126   C361.845551,331.437317 359.428040,332.647095 356.127258,332.439728   C353.362244,332.266052 350.773041,332.963928 350.167480,336.409668   C349.589447,339.698822 351.158569,341.297272 354.156067,342.208313   C356.082703,342.793915 358.065613,343.976044 358.169983,346.211243   C358.371399,350.524078 361.053711,350.816498 364.352142,350.707153   C365.816681,350.658630 367.445557,350.717926 368.729462,351.312256   C370.287628,352.033661 371.115417,353.728119 371.054352,355.462860   C370.995605,357.132874 369.829346,358.060089 368.153748,358.407196   C365.743286,358.906616 363.356628,359.521057 360.768860,360.131439   C365.739990,362.461151 367.915192,362.341858 371.436218,359.080780   C375.589783,355.233856 379.487366,351.110962 383.627563,347.248901   C385.570282,345.436676 385.038116,343.508301 384.782318,341.318604   C383.905273,333.810608 386.508728,328.747772 392.374695,326.000519   C397.939270,323.394379 404.658325,324.574188 409.030182,328.775635   C413.561096,333.129944 413.050568,338.538757 411.651703,343.677246   C410.185852,349.061768 404.984467,352.792938 399.609955,352.205231   C393.581299,351.545959 389.419464,353.711578 385.907928,358.274231   C384.193207,360.502197 381.959351,362.323090 380.139923,364.479614   C376.570374,368.710632 372.245422,370.813385 366.582642,370.429108   C364.248627,370.270782 361.316589,369.370117 359.465057,372.226624   C361.482605,374.517090 363.802856,373.545624 365.821625,373.605804   C368.741486,373.692810 370.853699,374.774323 371.093964,377.738922   C371.359924,381.020844 368.635193,381.683685 366.149323,382.263275   C364.072632,382.747406 361.456055,381.470428 359.769653,384.208405   C361.682281,386.535034 364.172729,385.331299 366.276184,385.665436   C368.636841,386.040466 371.270416,386.287750 371.128998,389.455444   C371.002106,392.297150 368.814819,393.466492 366.228699,393.268463   C362.161713,392.957031 359.054016,393.567810 358.165649,398.380554   C357.778900,400.475739 355.775269,401.745972 353.783142,402.066010   C349.851074,402.697601 348.797455,405.159882 349.388824,408.513794   C351.048035,417.923676 347.148651,424.861328 340.122101,430.607727   C338.196320,432.182678 336.533051,434.083252 334.783508,435.867981   C332.058258,438.648132 329.937378,441.099060 329.948639,445.879913   C329.969482,454.713470 321.397339,460.344513 312.807281,458.403290   C308.322418,457.389771 303.464478,461.813385 303.382507,467.269318   C303.257355,475.600372 303.241241,483.936401 303.390137,492.266571   C303.450989,495.671234 302.760468,497.458282 298.754974,497.455170   C294.734131,497.452026 293.540649,495.947174 293.619202,492.138092   C293.797821,483.475769 293.975708,474.791260 293.540741,466.146637   C293.278442,460.933197 294.888489,457.123138 299.027344,454.226837   C301.895874,452.219391 302.768280,449.629364 302.614899,446.076935   C302.111816,434.426361 309.464722,428.631073 320.658325,431.706085   C323.083466,432.372253 324.777405,431.911957 326.453918,430.203613   C330.538239,426.041748 334.646057,421.900482 338.835358,417.844849   C343.286438,413.535767 341.554321,408.618347 341.105774,403.316925   C337.270752,404.441772 338.482910,407.029846 338.413757,408.865631   C338.292938,412.074249 338.158203,415.285248 333.943329,415.173462   C330.090118,415.071320 330.110107,411.728210 329.673157,408.943634   C329.408051,407.254211 330.373779,405.268036 328.308624,403.682404   C326.730103,406.043457 327.404175,408.571777 327.375916,410.926422   C327.269653,419.780396 319.839294,428.141357 311.055847,429.110138   C309.899811,429.237640 308.678223,429.447052 307.569275,429.218781   C298.421570,427.335815 294.088745,433.860718 289.296387,439.581970   C287.993164,441.137756 288.360138,443.068237 288.356506,444.872162   C288.324921,460.537872 288.309937,476.203705 288.331573,491.869415   C288.335724,494.876953 288.410339,497.417786 284.055969,497.426819   C279.826294,497.435638 279.616699,495.125427 279.635956,491.995850   C279.698425,481.830902 279.655792,471.665283 279.653015,460.999939  M315.405029,390.649261   C324.218140,390.649292 333.031891,390.584778 341.844025,390.678406   C345.846375,390.720917 347.657013,388.865631 347.645569,384.963959   C347.630920,379.975464 347.764832,374.983704 347.625214,369.999268   C347.489532,365.155029 348.260925,360.243774 347.132965,355.368195   C343.050659,356.848022 341.931183,359.498108 342.188660,363.334564   C342.510986,368.136902 342.332397,372.973877 342.341339,377.795959   C342.355286,385.320679 342.345093,385.316284 334.665466,385.321686   C329.178131,385.325562 323.690765,385.352173 318.203430,385.350922   C315.716766,385.350342 314.236450,386.919342 313.163635,388.819916   C312.421753,390.134186 313.573700,390.484589 315.405029,390.649261  M364.756561,257.634613   C367.916443,259.626465 369.757507,257.711212 371.113220,255.246689   C372.347778,253.002518 371.354919,251.130646 369.431519,249.656921   C367.421692,248.117004 365.771545,248.819946 364.194458,250.377182   C361.869446,252.672882 361.762634,254.933762 364.756561,257.634613  M317.036499,440.592957   C312.452240,441.228821 310.357086,443.701630 311.881012,446.768707   C312.752777,448.523285 314.203278,449.728455 316.250397,449.458130   C318.165375,449.205231 319.691681,448.060181 320.299957,446.165436   C321.108521,443.647003 319.668854,442.086700 317.036499,440.592957  M344.230865,219.932159   C346.818573,217.587494 347.006287,215.196411 344.349060,212.772095   C342.325500,210.925858 340.321930,211.477356 338.605103,213.120636   C336.774261,214.872955 336.911194,216.965225 338.258575,218.994934   C339.627625,221.057236 341.597321,220.781006 344.230865,219.932159  M395.916748,341.607605   C398.536835,343.361420 400.834137,343.048401 402.733948,340.492615   C404.261688,338.437347 403.261505,336.779663 401.761169,335.304535   C400.190002,333.759827 398.600922,333.326233 396.563354,334.841064   C394.092102,336.678314 393.651398,338.615540 395.916748,341.607605  M396.286163,213.054749   C393.901306,214.751587 393.692535,216.844955 395.451965,219.027603   C397.043915,221.002457 399.259491,221.257706 401.243866,219.868073   C402.870422,218.729019 404.382782,217.012482 402.853577,214.799881   C401.428772,212.738327 399.864258,210.485764 396.286163,213.054749  z"
   id="path1" />
<path
   d="m 192.1011,363.01633 c -15.83694,27.58929 -31.47976,54.86767 -47.11784,82.14874 -3.44696,6.01327 -4.86262,12.42682 -2.95007,19.18353 2.78851,9.85138 11.87829,17.06003 22.69169,17.20932 21.99131,0.30365 43.98983,0.0492 65.98459,0.16635 4.69486,0.025 4.94589,-2.84018 4.94327,-6.26046 -0.0135,-17.49634 -0.002,-34.99271 -7e-4,-52.48905 7.8e-4,-9.16476 0.35266,-18.34808 -0.12808,-27.48761 -0.31017,-5.89664 1.86851,-10.12369 5.76175,-14.16052 15.26269,-15.82559 30.39761,-31.7746 45.55465,-47.70184 6.67523,-7.01441 6.61618,-15.81836 -0.23422,-22.89411 -6.02481,-6.22299 -12.13931,-12.36139 -18.31317,-18.43664 -2.52536,-2.48508 -3.84372,-5.19681 -3.68381,-8.84931 0.23297,-5.32199 -0.0977,-10.66812 0.11527,-15.99179 0.13806,-3.45013 -0.77527,-5.7272 -3.81162,-7.88745 -4.55945,-3.24383 -5.83966,-8.46451 -5.03802,-13.82378 0.81851,-5.47224 3.83194,-9.4059 9.48733,-11.04338 6.3504,-1.8387 13.18546,0.67554 16.27634,6.24695 3.2652,5.88567 1.9685,15.05698 -3.31583,18.61423 -3.27222,2.20276 -3.64361,4.76892 -4.12512,8.25116 -1.62949,11.78436 1.79053,21.14529 11.66501,28.00497 0.94244,0.6547 1.55667,1.78342 2.5014,2.43289 11.45923,7.87806 13.65799,19.11176 12.07129,31.98896 -0.46155,3.74582 -2.65433,6.00217 -4.91058,8.3764 -14.11102,14.84894 -28.12647,29.79416 -42.5062,44.37952 -5.45004,5.52792 -8.03212,11.19024 -7.88582,19.29376 0.53536,29.6506 0.0937,59.31772 0.28872,88.97684 0.0319,4.86023 -1.45333,6.19348 -6.23162,6.15109 -24.32631,-0.21582 -48.65904,-0.34729 -72.983,-0.0217 -29.12627,0.38992 -49.55473,-28.34878 -36.55867,-56.37161 7.58125,-16.34714 17.51946,-31.36093 26.34142,-47.0033 17.40995,-30.86984 35.11476,-61.57351 52.73022,-92.32724 5.61943,-9.8106 11.37871,-19.54117 16.99713,-29.35232 2.01113,-3.5119 2.99664,-7.31128 2.98367,-11.43588 -0.0671,-21.32869 -0.0766,-42.65787 0.0127,-63.98638 0.013,-3.10817 -0.60742,-5.09997 -3.7415,-6.68098 -9.84448,-4.96611 -14.21865,-15.05382 -11.5736,-25.50161 2.59477,-10.24916 10.41891,-16.0559 21.72772,-16.06239 23.32847,-0.0134 46.65696,-0.0142 69.98543,0.005 10.80117,0.009 18.24597,6.4346 20.77063,17.75508 1.93219,8.66391 -2.07502,21.21198 -11.95993,24.20573 -2.94736,0.89266 -3.64005,2.78228 -3.62961,5.62917 0.0813,22.16176 0.0917,44.32407 0.0236,66.48587 -0.0183,5.9389 3.61108,10.25177 6.33008,14.91415 5.95889,10.21793 6.08908,10.15503 -2.83201,17.9943 -0.98385,0.86453 -2.11554,1.56082 -3.83685,2.81454 -6.80374,-13.36166 -17.26288,-24.27197 -16.54379,-40.93441 1.06244,-24.61942 0.45056,-49.31087 0.56607,-73.97158 0.0315,-6.72618 0.0552,-6.72607 6.45865,-6.90463 6.53091,-0.1821 10.35577,-2.62645 10.12808,-6.47258 -0.22855,-3.8602 -3.54999,-5.84171 -10.06305,-5.8486 -21.16223,-0.0224 -42.32468,0.0338 -63.48662,-0.0474 -3.2463,-0.0124 -5.86725,0.59166 -7.58372,3.63791 -1.98725,3.52681 -0.94245,6.38463 2.96954,7.78929 2.23335,0.80195 4.53743,1.17421 6.87235,0.91126 3.97522,-0.44771 5.12931,1.27379 5.11015,5.14696 -0.12949,26.16053 -0.47075,52.33232 0.18428,78.4772 0.20454,8.16416 -1.99895,14.66321 -5.94131,21.43829 -15.64643,26.88892 -30.93171,53.98801 -46.54664,81.31916"
   id="path13" /><path
   d="m 270.86566,252.26302 c 3.00388,-1.66361 3.82486,-4.10686 1.8674,-6.91077 -0.99716,-1.42842 -2.68924,-2.4252 -4.74981,-1.38205 -2.00263,1.01385 -2.94382,2.55353 -2.637,4.7801 0.38559,2.79827 2.15946,3.8602 5.51941,3.51272 z"
   id="path2" />
<path
   fill="#000000"
   opacity="1.000000"
   stroke="none"
   d=" M255.522766,352.388550   C260.296631,349.789185 262.506317,345.419220 264.954346,341.308777   C266.727844,338.330933 268.557678,338.433563 270.940552,340.518280   C270.078827,343.618835 267.593933,345.219269 265.580505,347.087677   C254.818146,357.074982 245.716965,368.642517 235.199783,378.857300   C230.740540,383.188354 229.099442,388.593597 229.346451,394.644714   C230.216125,415.949158 230.330078,437.260620 230.155350,458.578827   C230.064163,469.705109 230.175003,469.870117 219.026428,470.481750   C213.225281,470.800049 207.373108,470.641876 201.566315,470.309052   C189.427048,469.613220 177.361908,471.848633 165.155640,470.523438   C153.978729,469.309967 148.649429,461.172302 153.981705,451.009338   C160.006927,439.525665 166.548447,428.309937 172.978989,417.042511   C186.500305,393.350800 200.176895,369.747345 213.620392,346.011780   C218.869156,336.744720 228.536697,335.045868 237.192078,341.547607   C242.783295,345.747650 249.166138,348.893829 255.522766,352.388550  z"
   id="path3" />
<path
   fill="#000000"
   opacity="1.000000"
   stroke="none"
   d=" M238.520142,531.290283   C250.618805,539.872559 255.720627,555.334167 251.709061,570.534973   C247.713898,585.673584 237.401840,594.468811 222.449753,596.467407   C210.980377,598.000488 199.525330,596.919800 188.073013,597.327454   C185.656616,597.413391 184.346741,596.636658 184.492599,593.896301   C185.414413,576.579468 183.077194,559.314575 183.609543,541.993164   C183.753006,537.325134 184.177536,532.710388 184.649597,528.080078   C184.838776,526.224365 185.204880,524.696472 187.431320,524.766602   C201.326996,525.204529 215.375809,522.895447 229.062424,527.192810   C232.257843,528.196106 235.250793,529.576782 238.520142,531.290283  M229.737991,576.202209   C230.735107,574.488098 231.977509,572.869629 232.689606,571.044312   C237.402588,558.963562 234.699387,542.672424 218.546326,539.750793   C213.772003,538.887268 208.943344,539.450745 204.139481,539.408813   C201.974396,539.389954 201.364441,540.808228 201.365799,542.720093   C201.374374,554.845215 201.363968,566.970337 201.366150,579.095459   C201.366440,580.651123 201.501892,582.421143 203.450241,582.486633   C212.525391,582.791687 221.865982,584.082275 229.737991,576.202209  z"
   id="path4" />
<path
   fill="#000000"
   opacity="1.000000"
   stroke="none"
   d=" M107.650040,551.999878   C107.654747,544.000854 107.753876,536.500183 107.620705,529.003601   C107.563202,525.766785 108.844337,524.732910 112.026398,524.614197   C124.859871,524.135376 124.833458,524.043274 124.951202,536.695312   C124.988403,540.693115 125.291100,544.689941 125.272881,548.686279   C125.259056,551.721375 126.316864,552.824951 129.498138,552.373535   C136.286850,551.410156 143.135162,551.437561 149.921143,552.443665   C153.512909,552.976135 154.765656,551.664124 154.689285,548.155579   C154.551529,541.826233 154.759033,535.489441 154.627197,529.159790   C154.562241,526.041260 155.577347,524.603943 158.901871,524.654846   C174.084930,524.887695 171.163086,522.903687 171.301514,536.441284   C171.488937,554.770325 171.226639,573.104187 171.433517,591.432861   C171.484299,595.932861 170.234207,597.566467 165.537018,597.408569   C152.846542,596.982239 154.880646,598.904419 154.677002,586.492432   C154.595001,581.494324 154.565720,576.492065 154.674484,571.495239   C154.739899,568.489197 153.448639,567.307190 150.496765,567.339539   C143.332016,567.418030 136.163376,567.458923 129.001053,567.300293   C125.741913,567.228210 124.627060,568.340393 124.789108,571.678040   C125.128319,578.664490 124.969551,585.673767 125.206779,592.667114   C125.322250,596.070801 124.098557,597.452515 120.589043,597.378967   C105.155968,597.055603 107.891006,599.378662 107.681648,584.995361   C107.524017,574.165649 107.650360,563.331909 107.650040,551.999878  z"
   id="path5" />
<path
   fill="#000000"
   opacity="1.000000"
   stroke="none"
   d=" M397.653320,456.316833   C396.782288,447.234528 391.404572,440.601715 387.440125,433.373291   C382.645966,424.632019 377.598816,416.023560 372.442169,407.489929   C370.260193,403.878967 370.540070,401.405548 373.805756,398.472504   C381.767944,391.321381 381.701050,391.120758 386.967529,400.467072   C394.471466,413.784180 401.811462,427.193573 409.294464,440.522583   C420.321960,460.165100 409.286835,495.717102 375.776062,497.157074   C355.660522,498.021484 335.476379,497.205414 315.325439,497.395599   C310.942291,497.436951 309.484619,496.041473 309.595001,491.669769   C309.882843,480.268860 308.616730,481.757172 319.427856,481.704010   C337.081909,481.617188 354.736847,481.722046 372.391113,481.659790   C383.597839,481.620270 393.369354,474.843719 396.824158,465.131317   C397.815308,462.344849 397.568573,459.560516 397.653320,456.316833  z"
   id="path6" />
<path
   fill="#000000"
   opacity="1.000000"
   stroke="none"
   d=" M424.045288,548.987549   C436.303314,563.174072 432.913208,587.595947 417.662659,595.290100   C410.367859,598.970459 404.384674,600.842285 391.682892,593.900940   C389.362732,596.786987 380.023071,598.697144 377.049591,596.933044   C375.848877,596.220703 375.718170,595.070129 375.719727,593.916016   C375.751709,570.256775 375.806274,546.597473 375.877869,522.938293   C375.878754,522.650635 376.160736,522.363953 376.317566,522.079956   C376.451813,521.987061 376.572754,521.818726 376.709198,521.805054   C390.325409,520.442566 390.326569,520.443298 390.342834,534.116638   C390.347351,537.918701 390.343475,541.720764 390.343475,546.550415   C402.568787,538.632568 413.680481,538.547974 424.045288,548.987549  M409.638916,582.201294   C414.020325,579.057861 414.840698,574.112366 415.304688,569.423462   C416.021118,562.183655 408.818939,553.680237 402.958435,554.587341   C397.555756,555.423584 393.574463,558.669617 391.588898,563.917114   C389.446320,569.579590 391.120819,576.901367 395.478027,580.756409   C399.532074,584.343262 403.985748,585.820740 409.638916,582.201294  z"
   id="path7" />
<path
   fill="#000000"
   opacity="1.000000"
   stroke="none"
   d=" M384.359741,448.854095   C387.451141,455.199219 389.081512,461.087677 383.662292,466.714264   C381.732605,468.717773 379.580658,470.270905 376.774994,470.273621   C354.944763,470.294647 333.114410,470.240753 311.284180,470.182983   C310.827484,470.181793 310.371613,469.856476 309.761688,469.623718   C309.037842,466.302826 310.157227,464.856842 313.724609,464.660431   C327.990906,463.874908 333.339661,459.079803 335.757904,445.288727   C336.208527,442.718964 337.565826,440.703522 339.395111,438.894531   C342.590088,435.734955 345.614716,432.399536 348.869629,429.304962   C353.711853,424.701263 356.664612,419.467987 355.735138,412.486847   C355.488220,410.632202 355.240143,408.449310 357.923401,407.555573   C360.676453,406.638580 361.553314,408.650269 362.499054,410.300415   C369.781494,423.007172 376.985779,435.758667 384.359741,448.854095  z"
   id="path8" />
<path
   fill="#000000"
   opacity="1.000000"
   stroke="none"
   d=" M341.851379,540.921143   C345.777313,541.992981 349.495972,541.590149 352.970245,543.109924   C360.823730,546.545410 364.982422,552.562866 365.255341,560.885681   C365.604401,571.529907 365.240356,582.195679 365.395325,592.849121   C365.446747,596.385376 364.067169,597.678894 360.676514,597.364380   C359.025879,597.211243 357.337708,597.215942 355.686584,597.367615   C352.535248,597.657227 350.101166,597.068420 350.202972,592.800232   C342.372803,597.868103 334.782013,600.218323 326.172089,596.512817   C318.377563,593.158264 315.170990,588.072510 315.670471,578.755737   C316.032135,572.010315 320.647949,566.790344 327.826538,564.684570   C333.060089,563.149353 338.384583,563.823486 343.678192,563.638855   C345.452911,563.576904 347.331055,564.034668 348.931122,562.923706   C347.573578,553.060913 342.312744,552.087708 323.786194,558.119568   C323.511261,557.955872 323.125336,557.854248 322.982941,557.610352   C316.770874,546.971924 319.081665,543.301331 332.998901,541.717102   C335.800232,541.398254 338.610474,541.157776 341.851379,540.921143  M345.803619,584.376831   C348.318115,582.392456 349.533905,579.769409 349.622742,576.595764   C349.669067,574.942810 349.296387,573.524414 347.304474,573.430725   C342.816193,573.219666 338.320038,572.920532 334.190979,575.351257   C330.095337,577.762329 329.748108,581.658813 333.586517,584.557373   C337.332977,587.386475 341.264557,587.343384 345.803619,584.376831  z"
   id="path9" />
<path
   fill="#000000"
   opacity="1.000000"
   stroke="none"
   d=" M311.312714,586.141357   C311.240204,598.870300 312.690582,597.179565 300.748199,597.297607   C289.597473,597.407837 278.440765,597.155762 267.295105,597.418640   C262.813995,597.524353 261.400085,595.901978 261.721069,591.598206   C262.872833,576.154785 262.775269,560.675598 262.621552,545.203369   C262.573700,540.388184 262.118988,535.577881 261.889435,530.763489   C261.690582,526.591980 263.049011,524.395142 267.896820,524.570312   C280.070099,525.010010 278.214966,523.274475 278.310089,534.883484   C278.426025,549.030396 278.478455,563.180786 278.270233,577.325439   C278.209076,581.479980 279.549957,582.873962 283.686981,582.732544   C291.334320,582.471191 298.997406,582.643982 306.653625,582.687317   C308.770294,582.699280 311.247162,582.331787 311.312714,586.141357  z"
   id="path10" />
<path
   style="fill:#008000;stroke-width:0.224159;paint-order:stroke fill markers"
   d="m 165.78938,470.50058 c -7.67819,-0.86208 -12.60786,-4.52164 -13.60468,-10.09951 -0.33418,-1.86997 -0.0904,-4.14756 0.69598,-6.50268 0.89048,-2.66684 6.11064,-12.12658 22.19028,-40.21221 6.0703,-10.60274 17.23669,-30.12142 24.81421,-43.37485 7.57752,-13.25342 14.13866,-24.65193 14.58033,-25.33001 1.78472,-2.74006 3.68142,-4.49332 6.27547,-5.80089 4.12653,-2.08002 9.41082,-1.72985 13.89151,0.92056 0.89034,0.52665 3.21039,2.03651 5.15567,3.35525 3.12345,2.11744 9.34798,5.73053 14.12089,8.19659 l 1.61764,0.8358 0.84812,-0.43799 c 1.58724,-0.81968 4.97663,-4.50559 6.56418,-7.13843 3.10786,-5.15418 3.63499,-5.75449 5.05574,-5.75756 0.60303,-10e-4 2.78984,1.13768 2.78984,1.45307 0,0.0657 -0.2166,0.5975 -0.48134,1.18177 -0.34265,0.75622 -1.26306,1.80421 -3.19427,3.63706 -5.48563,5.20621 -10.52178,10.39288 -17.73803,18.26816 -4.06497,4.4362 -9.32012,10.03732 -11.67813,12.44695 -4.54546,4.64495 -5.89682,6.4226 -7.01497,9.22785 -1.4285,3.58386 -1.58685,6.12816 -1.13455,18.22949 0.6709,17.94989 0.66298,60.72486 -0.0117,63.06256 -0.40118,1.39006 -1.4373,2.39117 -2.91361,2.81511 -3.2412,0.93077 -12.826,1.26014 -23.39929,0.8041 -5.77708,-0.24917 -8.03923,-0.25044 -13.24361,-0.007 -7.76451,0.36255 -21.80563,0.49448 -24.18571,0.22725 z"
   id="path11" /><path
   style="fill:#008000;stroke-width:0.634019;paint-order:stroke fill markers"
   d="m 310.45774,469.38505 c -0.73374,-0.73374 -0.45893,-2.56205 0.50539,-3.36237 0.51044,-0.42363 3.05783,-1.03464 5.66086,-1.35781 11.81824,-1.46724 16.07195,-5.24213 18.88671,-16.76069 l 1.36844,-5.59995 8.03584,-8.35173 c 9.63682,-10.01566 11.03121,-12.44958 11.13808,-19.4416 0.0774,-5.06211 0.79925,-6.83698 2.7808,-6.83698 0.60067,0 1.53378,0.49929 2.07357,1.10953 1.56362,1.7677 22.76514,39.42128 24.36495,43.27176 2.71196,6.52727 1.39484,12.16425 -3.70557,15.85897 l -2.61398,1.89355 h -34.03621 c -18.71991,0 -34.2264,-0.1902 -34.45888,-0.42268 z"
   id="path12" /><path
   style="fill:#008000;stroke-width:0.634019;paint-order:stroke fill markers"
   d="m 156.89541,496.13632 c -11.50491,-2.50457 -22.51564,-11.20539 -27.30081,-21.57345 -3.59918,-7.79836 -4.40346,-17.21068 -2.20512,-25.80611 1.53342,-5.99562 7.35434,-17.64722 17.27083,-34.57061 4.24424,-7.24319 18.46828,-31.99978 31.60899,-55.01465 13.14071,-23.01487 29.84026,-52.11632 37.11012,-64.66989 7.26985,-12.55357 13.72236,-24.25121 14.3389,-25.99476 1.02013,-2.88492 1.12284,-6.38205 1.14167,-38.87532 0.0135,-23.29022 -0.20604,-36.12888 -0.63138,-36.92365 -0.35865,-0.67014 -2.14182,-2.17583 -3.96262,-3.34598 -4.61262,-2.96435 -7.32791,-5.878 -9.17611,-9.84642 -4.56859,-9.80966 -0.78732,-22.38302 8.30585,-27.61831 4.99134,-2.87371 7.15959,-2.99882 48.28121,-2.78598 l 38.67513,0.20017 3.17009,1.45688 c 4.31994,1.98531 8.10655,5.86833 10.25394,10.51502 1.57852,3.41572 1.78935,4.59734 1.76678,9.90174 -0.0203,4.77071 -0.30772,6.63882 -1.38218,8.98384 -1.94567,4.24644 -5.69022,8.11057 -9.49418,9.79738 -1.81156,0.80332 -3.59474,2.02297 -3.96261,2.71033 -0.44645,0.83422 -0.66885,13.14795 -0.66885,37.03377 0,28.88601 0.16931,36.2577 0.87831,38.2413 0.48307,1.35151 2.61492,5.37162 4.73744,8.93358 3.8229,6.4155 4.96084,9.12068 4.61001,10.95921 -0.21083,1.10488 -4.44847,5.62598 -7.75551,8.27428 l -2.28489,1.82976 -5.13925,-8.7115 c -8.8167,-14.94507 -11.04167,-20.91219 -11.15408,-29.91397 -0.0327,-2.6205 0.0118,-21.66906 0.099,-42.33014 0.15447,-36.61054 0.19074,-37.59783 1.42654,-38.83363 0.95206,-0.95206 2.11339,-1.26804 4.66053,-1.26804 6.45446,0 10.55591,-2.39941 10.55591,-6.17537 0,-1.18263 -0.30827,-2.72625 -0.68505,-3.43026 -1.60642,-3.00162 -2.58629,-3.07474 -41.20321,-3.07474 H 232.558 l -2.15566,2.15566 c -2.24733,2.24733 -2.81388,4.94006 -1.54014,7.32006 0.92772,1.73348 5.29152,3.20465 9.50565,3.20465 6.19014,0 5.72929,-3.68078 5.72929,45.7592 0,45.71625 -0.0558,46.66239 -3.15453,53.4647 -0.9531,2.09226 -22.08591,39.325 -46.9618,82.73942 -55.72123,97.24699 -51.0861,88.93879 -52.31898,93.77865 -2.7696,10.87246 2.86873,22.20571 13.53445,27.20473 l 3.62536,1.69921 37.4684,0.18208 c 34.53862,0.16785 37.53797,0.0983 38.35812,-0.88946 0.73847,-0.88938 0.94362,-8.73498 1.20673,-46.14843 l 0.31701,-45.07688 1.42485,-2.666 c 0.78367,-1.46631 10.78037,-12.45068 22.2149,-24.40972 33.48816,-35.02431 32.08263,-33.26793 32.11395,-40.13025 0.027,-5.91574 -1.45379,-8.14623 -14.10177,-21.2412 -6.23008,-6.45027 -11.65968,-12.35095 -12.06576,-13.11262 -0.4814,-0.90296 -0.73832,-5.27129 -0.73832,-12.55335 0,-12.48494 -0.25734,-13.50464 -4.15909,-16.48065 -3.47103,-2.64749 -4.94527,-6.49864 -4.55826,-11.9076 0.57708,-8.06532 5.17758,-12.19913 13.57638,-12.19913 4.02567,0 4.85061,0.21688 7.25657,1.90785 3.75083,2.6362 5.74535,6.68583 5.72176,11.61741 -0.0219,4.5813 -1.39525,7.58319 -5.11712,11.18515 -3.19927,3.0962 -4.02243,5.80849 -4.04577,13.3307 -0.0324,10.42981 2.38055,14.89209 13.19917,24.40971 11.34364,9.97951 13.30942,13.86527 13.31094,26.31177 10e-4,9.24092 -0.22916,9.76095 -7.86136,17.75256 -2.99728,3.13842 -13.68702,14.32178 -23.755,24.85193 -10.06797,10.53014 -18.99907,20.16654 -19.84689,21.4142 -3.79823,5.58961 -3.63718,3.07283 -3.66627,57.29148 l -0.0267,49.66608 -1.49677,1.21391 c -1.44129,1.1689 -3.00447,1.21204 -42.16224,1.16351 -31.07457,-0.0385 -41.56835,-0.24697 -44.49374,-0.88381 z"
   id="path14" /><path
   style="fill:#008000;stroke-width:0.634019;paint-order:stroke fill markers"
   d="m 311.34268,495.84208 c -1.11396,-1.11396 -1.30762,-2.09906 -1.30762,-6.65149 0,-4.01271 0.24819,-5.59206 0.99632,-6.34019 0.8796,-0.8796 4.77102,-0.99631 33.21919,-0.99631 30.30162,0 32.46472,-0.0747 36.27917,-1.25287 7.16026,-2.21158 12.18956,-6.38096 15.53336,-12.87745 1.47271,-2.86125 1.70201,-4.07164 1.70716,-9.01136 0.004,-4.21779 -0.3372,-6.63646 -1.30961,-9.27272 -1.15233,-3.12403 -14.91043,-27.71372 -21.91868,-39.17501 -2.84002,-4.64458 -3.56065,-7.61105 -2.2887,-9.42151 1.52551,-2.17137 7.72455,-7.11766 8.92035,-7.11766 1.5226,0 3.03046,2.45068 17.27636,28.07887 6.5492,11.78192 12.46881,23.19426 13.15469,25.36074 1.61226,5.09262 1.71577,14.36128 0.22453,20.10654 -3.63174,13.99198 -13.58791,24.30925 -27.31885,28.30967 -3.33387,0.9713 -7.81728,1.12957 -37.82114,1.33515 -33.6925,0.23084 -34.05222,0.21991 -35.34653,-1.0744 z"
   id="path15" /><path
   style="fill:#000000;stroke-width:0.634019;paint-order:stroke fill markers;fill-opacity:1"
   d="m 251.76801,495.91956 c -0.48805,-0.91193 -0.69667,-15.22438 -0.69667,-47.79517 0,-52.62 -0.50027,-47.67588 5.45201,-53.88145 6.5661,-6.84549 18.09865,-17.7106 20.08243,-18.92016 1.76913,-1.07868 3.21223,-1.24743 10.68549,-1.24947 6.87163,-0.002 8.8003,-0.19538 9.4227,-0.94533 1.48036,-1.78372 0.29226,-2.66463 -4.06568,-3.01444 -4.76688,-0.38264 -6.07191,-1.16731 -6.07191,-3.65083 0,-2.43223 1.1128,-3.12416 5.96366,-3.70815 4.8588,-0.58495 6.02688,-1.32924 4.49311,-2.863 -0.69447,-0.69448 -2.12746,-1.03707 -4.33781,-1.03707 -4.08006,0 -6.11896,-1.26757 -6.11896,-3.80411 0,-2.44877 2.0528,-3.80411 5.76173,-3.80411 3.26356,0 6.28462,-1.80969 6.28462,-3.76463 0,-1.78043 2.34481,-4.31615 4.71434,-5.09817 1.18713,-0.39179 2.48269,-1.10305 2.879,-1.58058 0.47143,-0.56803 0.76299,-4.99596 0.84324,-12.80644 0.11517,-11.20879 0.2145,-12.11253 1.62562,-14.79129 0.88256,-1.67538 6.68845,-8.09042 14.06516,-15.54086 6.90921,-6.97828 12.89966,-13.54038 13.31211,-14.58243 0.83256,-2.10348 1.29779,-47.18832 0.52519,-50.8951 -0.2803,-1.34481 -1.64438,-3.25479 -3.84883,-5.38916 -3.54992,-3.43706 -4.96417,-6.49377 -4.93706,-10.67085 0.0174,-2.68765 2.07105,-7.30144 4.27747,-9.61013 1.69841,-1.77711 6.61909,-3.63367 9.61359,-3.62716 7.21818,0.0157 13.31001,6.15892 13.3439,13.45652 0.0203,4.37964 -1.54204,7.5901 -5.42407,11.14575 l -3.43827,3.14919 -0.004,26.22417 c -0.002,16.9144 -0.2485,27.1245 -0.69355,28.76025 -0.56349,2.07101 -3.11481,4.97765 -13.91285,15.85046 -9.30823,9.37269 -13.60358,14.15904 -14.50896,16.16748 -1.10743,2.45663 -1.28673,4.17458 -1.29036,12.36336 -0.004,9.73639 0.355,11.57229 2.13145,10.8906 0.78731,-0.30213 1.01501,-1.31846 1.01501,-4.53052 0,-4.80962 1.25033,-6.67709 4.47049,-6.67709 1.60804,0 2.08939,0.37094 2.85308,2.1987 0.50527,1.20929 0.91867,3.61757 0.91867,5.35174 0,3.41566 0.98536,4.70528 2.26159,2.95994 0.57378,-0.7847 0.70232,-2.75263 0.45288,-6.9336 -0.39231,-6.57563 0.62805,-11.30875 3.49114,-16.19423 0.90451,-1.54343 7.71777,-8.79123 15.14058,-16.10623 7.42281,-7.31499 13.63705,-13.75913 13.80944,-14.3203 0.62794,-2.04423 0.85576,-14.78823 0.29906,-16.72931 -0.31471,-1.09734 -2.13136,-3.57524 -4.037,-5.50644 -1.90564,-1.93121 -3.90538,-4.57203 -4.44386,-5.86849 -3.06179,-7.37159 1.28427,-15.57545 9.51946,-17.96948 5.15618,-1.49895 9.11666,-0.44974 13.04707,3.45642 6.19937,6.16113 5.71438,13.7582 -1.26192,19.76744 -4.11293,3.5428 -4.7434,5.05483 -4.02305,9.64842 0.33667,2.14696 0.32005,6.46536 -0.0413,10.73912 l -0.60444,7.14818 -14.7447,14.9148 c -9.08479,9.18959 -15.30645,16.00409 -16.20812,17.75252 -1.98687,3.85277 -2.48259,11.90344 -0.95598,15.52563 l 1.06568,2.52853 1.22259,-1.49385 c 1.00436,-1.22719 1.1523,-2.09203 0.82875,-4.84489 -0.71628,-6.09445 2.86496,-10.07911 10.49594,-11.67832 1.89208,-0.39653 4.3172,-1.26833 5.38916,-1.93736 1.07195,-0.66903 5.80067,-5.39801 10.50826,-10.50885 4.70759,-5.11083 11.90115,-12.53838 15.98569,-16.50565 4.08454,-3.96728 7.85275,-7.86386 8.3738,-8.65909 0.79834,-1.21841 0.96124,-5.59519 1.03556,-27.82306 0.098,-29.31239 0.21481,-28.42298 -4.18503,-31.86754 -3.31783,-2.59745 -4.96739,-6.63904 -4.55699,-11.16503 0.74238,-8.18707 5.66819,-12.68343 13.89483,-12.68343 5.37256,0 9.62795,2.49607 11.94015,7.00369 3.08644,6.01701 2.13871,11.20435 -2.98488,16.33746 -1.84982,1.85326 -3.64879,3.90299 -3.99771,4.55495 -0.39436,0.73686 -0.63574,11.33711 -0.63794,28.01436 -0.002,17.42956 -0.24635,27.71746 -0.6966,29.36503 -0.57891,2.11834 -3.94022,5.79726 -20.40617,22.33438 -10.8422,10.88907 -20.62896,20.23292 -21.74836,20.76411 -1.11941,0.53119 -3.34737,0.9658 -4.95105,0.9658 -3.66833,0 -5.45184,1.56923 -5.45184,4.79682 0,3.23687 0.8261,4.37241 4.08683,5.6177 2.58651,0.98779 2.96569,1.39978 3.73681,4.06017 1.0284,3.54797 2.57413,4.52339 7.18901,4.53652 3.45897,0.01 4.84489,0.82248 5.63196,3.30234 0.6155,1.93926 -1.28797,3.30207 -6.01238,4.30466 -2.11965,0.44982 -3.85391,1.03627 -3.85391,1.30322 0,0.68352 3.65269,1.87744 5.74384,1.87744 2.15037,0 5.98569,-3.00663 13.27671,-10.40805 l 5.38916,-5.47076 v -5.8505 c 0,-5.20102 0.18828,-6.17076 1.69609,-8.73549 5.32227,-9.05303 20.94853,-8.09943 24.57534,1.49973 1.6714,4.42372 0.21743,11.82216 -2.99588,15.24427 -2.44716,2.60619 -5.17583,3.57651 -10.05763,3.57651 -6.02842,0 -8.34215,1.33852 -15.34246,8.87577 -7.35303,7.91701 -9.46524,9.11561 -16.262,9.22807 -5.35926,0.0887 -7.29121,0.56794 -7.29121,1.80877 0,1.56213 1.63385,2.27803 5.19895,2.27803 2.83195,0 3.96881,0.29151 4.94535,1.26804 3.20504,3.20505 -0.40197,6.97421 -6.67418,6.97421 -1.12575,0 -2.42762,0.45884 -2.89304,1.01963 -1.27904,1.54115 0.86077,2.78448 4.79218,2.78448 5.32994,0 7.67675,2.80444 4.77504,5.70616 -0.93429,0.93429 -2.1134,1.26804 -4.47981,1.26804 -4.16858,0 -5.4984,0.77543 -6.88755,4.01619 -1.33278,3.10925 -2.08054,3.79761 -5.22492,4.80988 -3.57153,1.14977 -3.87826,1.87949 -3.96083,9.42298 -0.0985,8.99432 -1.24431,11.22926 -10.21985,19.93336 -7.03681,6.824 -9.16144,10.10108 -9.18414,14.16579 -0.0173,3.10252 -1.78906,7.02906 -4.18575,9.27647 -2.99223,2.80585 -6.05656,3.74794 -11.52768,3.54404 -4.20537,-0.15673 -5.15168,0.0132 -6.86064,1.23225 -3.75547,2.6788 -4.04078,4.13442 -4.04078,20.61564 0,16.67067 -0.0782,16.96244 -4.54829,16.96244 -4.18011,0 -4.24756,-0.28949 -4.36057,-18.71566 -0.0686,-11.17866 0.13462,-17.08363 0.63224,-18.37442 0.40329,-1.04613 2.24222,-3.35002 4.0865,-5.11975 3.59118,-3.44603 4.19012,-4.97341 4.19012,-10.68549 0,-4.36633 2.4468,-9.32208 5.5493,-11.23953 2.36045,-1.45884 4.78349,-1.6644 12.98312,-1.10147 l 3.63298,0.24942 7.3481,-7.29121 c 4.04146,-4.01017 7.7475,-8.04491 8.23564,-8.9661 1.55502,-2.93452 1.57056,-12.59053 0.0202,-12.59053 -1.91462,0 -2.89837,1.91878 -2.89837,5.65319 0,4.1192 -1.13235,5.75914 -3.97659,5.75914 -2.25118,0 -3.50832,-2.00264 -4.00324,-6.3772 -0.82864,-7.32422 -2.29559,-6.71226 -2.85651,1.19165 -0.45355,6.39095 -2.18756,10.44504 -6.06888,14.18903 -3.91028,3.77192 -7.67276,5.09409 -14.75339,5.18449 -7.30661,0.0933 -8.9314,0.90116 -14.44828,7.18389 l -3.66357,4.17214 -0.31701,27.94882 -0.317,27.94881 -1.74356,0.61278 c -1.12172,0.39424 -2.36537,0.39434 -3.4871,2.8e-4 l -1.74355,-0.61252 -0.32786,-28.19922 c -0.25743,-22.1413 -0.14903,-28.84945 0.5046,-31.22603 0.64522,-2.34603 1.91953,-4.16551 5.66569,-8.08954 6.64153,-6.9569 9.54701,-8.31938 18.82151,-8.82608 6.00474,-0.32807 7.40092,-0.61023 9.13728,-1.84663 2.89233,-2.05952 4.5569,-5.65202 4.5569,-9.83475 0,-4.2325 -0.4293,-5.46627 -1.90205,-5.46627 -1.48413,0 -1.90206,1.23419 -1.90206,5.61695 0,4.44858 -1.19304,6.4294 -3.87241,6.4294 -1.56703,0 -2.05884,-0.38384 -2.81714,-2.1987 -0.50527,-1.20929 -0.92026,-2.84981 -0.92221,-3.64561 -0.002,-0.7958 -0.28473,-2.45912 -0.62842,-3.69627 -0.51884,-1.86764 -1.14362,-2.46854 -3.68146,-3.54074 -2.51755,-1.06364 -3.29948,-1.80814 -4.43405,-4.22184 -1.45671,-3.099 -2.91112,-4.25968 -5.31776,-4.24376 -3.11333,0.0206 -3.28225,0.54057 -3.32772,10.24366 -0.0409,8.72417 -0.11641,9.23496 -1.90604,12.88831 -1.20802,2.46604 -3.77264,5.7613 -7.29122,9.36841 -2.98525,3.06037 -5.76266,6.48407 -6.17202,7.60823 -0.52756,1.44877 -0.75833,10.75372 -0.79252,31.956 -0.0538,33.36183 0.14868,31.90472 -4.43339,31.90472 -4.75924,0 -4.54569,1.75261 -4.34911,-35.69182 l 0.17502,-33.33642 6.14412,-5.90457 c 4.84602,-4.65706 6.54801,-6.77525 8.05577,-10.02567 2.41422,-5.20456 3.30757,-10.79743 2.82979,-17.71605 -0.36575,-5.29635 -0.33391,-5.4634 1.33656,-7.01068 1.54113,-1.42748 2.24004,-1.58564 7.03085,-1.59108 4.01367,-0.005 5.56738,-0.25383 6.32891,-1.01535 0.92306,-0.92306 0.83595,-1.08112 -1.0195,-1.84967 -2.33232,-0.96608 -9.23519,-1.18052 -12.95398,-0.40242 -2.11948,0.44347 -4.02876,2.0057 -11.62294,9.51028 -4.99777,4.9388 -9.68801,9.81276 -10.42275,10.83103 -1.32439,1.83542 -1.33754,2.24224 -1.52597,47.19569 -0.11159,26.62066 -0.43199,45.58623 -0.77594,45.93018 -0.32222,0.32223 -1.86637,0.7302 -3.43143,0.9066 -2.40893,0.27152 -2.95246,0.121 -3.54224,-0.98102 z m 67.57796,-47.77897 c 2.01184,-1.89003 1.87805,-4.33098 -0.35462,-6.47001 -1.80049,-1.72498 -1.85081,-1.73358 -4.2574,-0.72804 -2.79297,1.16697 -3.40756,1.91355 -3.42114,4.1559 -0.0253,4.16851 4.86352,6.01988 8.03316,3.04215 z m 25.41951,-57.63116 c 1.30315,-0.45428 2.17641,-1.32754 2.63068,-2.63069 0.71987,-2.06501 0.95921,-28.86885 0.2804,-31.40182 -0.50055,-1.86781 -1.06348,-1.80078 -3.553,0.42306 l -2.07056,1.84959 -0.14246,12.17301 c -0.0902,7.70803 -0.39804,12.48098 -0.83926,13.01262 -0.52385,0.6312 -3.76785,0.88818 -13.0696,1.03533 l -12.3728,0.19573 -1.52888,1.7789 c -1.80737,2.10297 -1.95099,3.40697 -0.41933,3.80723 2.39691,0.62638 29.1918,0.41695 31.08481,-0.24296 z m 57.5481,-49.06163 c 0.85592,-0.85593 1.55623,-2.16176 1.55623,-2.90186 0,-1.68487 -3.29112,-5.05219 -4.93788,-5.05219 -2.20845,0 -4.5724,2.42041 -4.5724,4.6816 0,4.41296 4.82743,6.39906 7.95405,3.27245 z m -32.20427,-84.19478 c 2.23932,-2.39906 2.37939,-4.43627 0.4617,-6.71531 -2.14391,-2.54789 -4.24753,-2.59477 -6.69314,-0.14916 -2.28379,2.28379 -2.33503,3.81709 -0.21188,6.34031 1.9979,2.37438 4.52445,2.57991 6.44332,0.52416 z m 32.41781,-38.17824 c 3.54649,-3.48907 -2.34744,-9.55031 -6.32048,-6.4999 -2.83728,2.17839 -2.75957,5.63067 0.17343,7.70456 1.80401,1.2756 4.07918,0.82973 6.14705,-1.20466 z m -57.29662,0.28745 c 1.746,-1.92931 1.48801,-4.97817 -0.57111,-6.74935 -0.94934,-0.81659 -2.26487,-1.48471 -2.9234,-1.48471 -0.65853,0 -1.97406,0.66812 -2.9234,1.48471 -2.05912,1.77118 -2.31711,4.82004 -0.57111,6.74935 1.56213,1.72613 5.42689,1.72613 6.98902,0 z"
   id="path16" /></svg>
